<svg width="170" height="102" viewBox="0 0 170 102" fill="none" xmlns="http://www.w3.org/2000/svg">
<path d="M24.6463 47.4064L20.2155 50.1064L16.477 49.2064L1.38462 29.9601L0 26.5678L1.38462 23.1755L15.3693 2.8215L19.1078 1.92149L23.5386 4.62151L10.177 26.5678L24.6463 47.4064Z" fill="white"/>
<path d="M70.1631 28.638C70.1631 30.8691 69.8701 33.0213 69.2842 35.0946C68.7208 37.1454 67.9095 39.0722 66.8503 40.8751C65.7911 42.6555 64.5291 44.2894 63.0642 45.7767C61.5994 47.2416 59.9655 48.5036 58.1626 49.5628C56.3597 50.622 54.4216 51.4446 52.3482 52.0305C50.2974 52.5939 48.1565 52.8756 45.9254 52.8756H31.322V4.4003H45.9254C48.1565 4.4003 50.2974 4.69327 52.3482 5.27921C54.4216 5.84261 56.3597 6.65391 58.1626 7.71312C59.9655 8.77232 61.5994 10.0456 63.0642 11.533C64.5291 12.9979 65.7911 14.6317 66.8503 16.4346C67.9095 18.215 68.7208 20.1418 69.2842 22.2152C69.8701 24.2659 70.1631 26.4069 70.1631 28.638ZM60.4613 28.638C60.4613 26.6322 60.0782 24.7505 59.3119 22.9927C58.5682 21.2348 57.5316 19.7024 56.2019 18.3953C54.8948 17.0656 53.3511 16.0177 51.5707 15.2515C49.8129 14.4852 47.9312 14.1021 45.9254 14.1021H41.0914V43.1738H45.9254C47.9312 43.1738 49.8129 42.802 51.5707 42.0583C53.3511 41.292 54.8948 40.2554 56.2019 38.9483C57.5316 37.6186 58.5682 36.0749 59.3119 34.3171C60.0782 32.5367 60.4613 30.6437 60.4613 28.638Z" fill="white"/>
<path d="M86.5244 6.8342C86.5244 7.69058 86.3554 8.49061 86.0173 9.23431C85.7018 9.978 85.2624 10.6316 84.699 11.195C84.1355 11.7358 83.4707 12.1753 82.7045 12.5133C81.9608 12.8288 81.1608 12.9866 80.3044 12.9866C79.448 12.9866 78.6367 12.8288 77.8705 12.5133C77.1268 12.1753 76.4732 11.7358 75.9098 11.195C75.369 10.6316 74.9295 9.978 74.5915 9.23431C74.276 8.49061 74.1182 7.69058 74.1182 6.8342C74.1182 6.00037 74.276 5.2116 74.5915 4.4679C74.9295 3.70167 75.369 3.04812 75.9098 2.50726C76.4732 1.94385 77.1268 1.50439 77.8705 1.18889C78.6367 0.850845 79.448 0.681824 80.3044 0.681824C81.1608 0.681824 81.9608 0.850845 82.7045 1.18889C83.4707 1.50439 84.1355 1.94385 84.699 2.50726C85.2624 3.04812 85.7018 3.70167 86.0173 4.4679C86.3554 5.2116 86.5244 6.00037 86.5244 6.8342ZM84.9356 52.8756H75.6394V16.6713H84.9356V52.8756Z" fill="white"/>
<path d="M102.277 52.8756L88.485 16.6713H98.9982L106.908 39.2525L114.785 16.6713H125.332L111.54 52.8756H102.277Z" fill="white"/>
<path d="M24.5497 94.7364H17.6974V81.2572C17.6974 79.6343 17.3368 78.4171 16.6155 77.6057C15.8942 76.7642 14.8724 76.3434 13.55 76.3434C12.2276 76.3434 11.1757 76.7642 10.3943 77.6057C9.64299 78.4171 9.26732 79.6343 9.26732 81.2572V94.7364H2.41504V61.8274H9.26732V73.9992C9.65802 73.4883 10.0788 73.0074 10.5296 72.5566C11.0104 72.0758 11.5364 71.655 12.1074 71.2944C12.6784 70.9337 13.3096 70.6482 14.0008 70.4378C14.692 70.2274 15.4734 70.1223 16.345 70.1223C18.9597 70.1223 20.9733 70.9187 22.3858 72.5115C23.8284 74.1044 24.5497 76.2983 24.5497 79.0933V94.7364Z" fill="white"/>
<path d="M53.0429 83.3309C53.0429 83.6615 53.0278 83.947 52.9978 84.1875C52.9978 84.4279 52.9828 84.7134 52.9527 85.044H36.1376C36.4682 86.6068 37.1444 87.7939 38.1662 88.6054C39.2181 89.3868 40.5104 89.7775 42.0432 89.7775C43.1852 89.7775 44.207 89.5821 45.1086 89.1914C46.0103 88.8007 46.9419 88.1696 47.9037 87.298L51.8257 90.7693C50.6836 92.1818 49.3012 93.2938 47.6783 94.1052C46.0553 94.8866 44.1469 95.2773 41.953 95.2773C40.1498 95.2773 38.4667 94.9768 36.9039 94.3757C35.3712 93.7746 34.0338 92.9181 32.8918 91.8061C31.7798 90.6941 30.9082 89.3868 30.2771 87.8841C29.6459 86.3513 29.3304 84.6533 29.3304 82.79V82.6998C29.3304 80.9867 29.6159 79.3638 30.1869 77.8311C30.788 76.2983 31.6145 74.9609 32.6664 73.8189C33.7182 72.6768 34.9655 71.7752 36.4081 71.114C37.8807 70.4529 39.5036 70.1223 41.2768 70.1223C43.2904 70.1223 45.0335 70.4829 46.5062 71.2042C47.9788 71.9255 49.196 72.9022 50.1577 74.1344C51.1495 75.3366 51.8708 76.7341 52.3216 78.327C52.8024 79.8898 53.0429 81.5277 53.0429 83.2408V83.3309ZM46.3709 80.7613C46.1605 79.2286 45.6196 77.9964 44.748 77.0647C43.8764 76.103 42.7194 75.6221 41.2768 75.6221C39.8342 75.6221 38.6621 76.0879 37.7605 77.0196C36.8889 77.9513 36.3179 79.1985 36.0474 80.7613H46.3709Z" fill="white"/>
<path d="M78.9319 94.7364H72.305V92.1217C71.4635 93.0533 70.4567 93.8047 69.2846 94.3757C68.1125 94.9167 66.685 95.1872 65.0019 95.1872C63.8599 95.1872 62.778 95.0369 61.7561 94.7364C60.7644 94.4058 59.8928 93.9249 59.1414 93.2938C58.3901 92.6626 57.789 91.8963 57.3382 90.9947C56.9175 90.063 56.7071 88.9961 56.7071 87.7939V87.7038C56.7071 86.3814 56.9475 85.2393 57.4284 84.2776C57.9092 83.3159 58.5704 82.5195 59.4119 81.8883C60.2835 81.2572 61.3053 80.7914 62.4774 80.4908C63.6796 80.1602 65.0019 79.9949 66.4445 79.9949C67.6767 79.9949 68.7437 80.0851 69.6453 80.2654C70.5769 80.4458 71.4786 80.6862 72.3501 80.9867V80.581C72.3501 79.1384 71.9143 78.0414 71.0428 77.2901C70.1712 76.5388 68.8789 76.1631 67.1658 76.1631C65.8435 76.1631 64.6714 76.2833 63.6495 76.5237C62.6577 76.7341 61.6059 77.0497 60.4939 77.4704L58.7808 72.2411C60.1032 71.67 61.4856 71.2042 62.9282 70.8436C64.3708 70.4829 66.1139 70.3026 68.1576 70.3026C71.9143 70.3026 74.6492 71.2192 76.3623 73.0525C78.0754 74.8858 78.9319 77.4404 78.9319 80.7162V94.7364ZM72.4403 86.2161V84.9989C71.8392 84.7284 71.163 84.5181 70.4116 84.3678C69.6903 84.1875 68.909 84.0973 68.0674 84.0973C66.5948 84.0973 65.4377 84.3828 64.5962 84.9538C63.7547 85.5249 63.334 86.3513 63.334 87.4333V87.5234C63.334 88.4551 63.6796 89.1764 64.3708 89.6873C65.0621 90.1982 65.9637 90.4537 67.0757 90.4537C68.6986 90.4537 69.9909 90.063 70.9526 89.2816C71.9444 88.5002 72.4403 87.4784 72.4403 86.2161Z" fill="white"/>
<path d="M109.127 94.7364H102.275V91.2651C101.433 92.4072 100.411 93.3539 99.2091 94.1052C98.037 94.8265 96.5493 95.1872 94.7461 95.1872C93.3336 95.1872 91.9661 94.9167 90.6438 94.3757C89.3214 93.8347 88.1493 93.0383 87.1275 91.9864C86.1056 90.9045 85.2791 89.5972 84.648 88.0644C84.0469 86.5016 83.7464 84.7134 83.7464 82.6998V82.6096C83.7464 80.596 84.0469 78.8228 84.648 77.2901C85.2791 75.7273 86.0906 74.42 87.0824 73.3681C88.1042 72.2861 89.2763 71.4747 90.5987 70.9337C91.921 70.3927 93.3035 70.1223 94.7461 70.1223C96.5794 70.1223 98.0821 70.4829 99.2542 71.2042C100.456 71.9255 101.463 72.767 102.275 73.7287V61.8274H109.127V94.7364ZM102.365 82.6998V82.6096C102.365 81.6179 102.199 80.7162 101.869 79.9048C101.568 79.0633 101.148 78.357 100.607 77.786C100.096 77.1849 99.4796 76.7341 98.7583 76.4336C98.0671 76.103 97.3157 75.9377 96.5043 75.9377C95.6928 75.9377 94.9264 76.103 94.2051 76.4336C93.5139 76.7341 92.8978 77.1849 92.3568 77.786C91.8159 78.357 91.3801 79.0482 91.0495 79.8597C90.7489 80.6712 90.5987 81.5878 90.5987 82.6096V82.6998C90.5987 83.6916 90.7489 84.6082 91.0495 85.4497C91.3801 86.2612 91.8159 86.9674 92.3568 87.5685C92.8978 88.1395 93.5139 88.5904 94.2051 88.9209C94.9264 89.2215 95.6928 89.3717 96.5043 89.3717C97.3157 89.3717 98.0671 89.2215 98.7583 88.9209C99.4796 88.5904 100.096 88.1395 100.607 87.5685C101.148 86.9674 101.568 86.2612 101.869 85.4497C102.199 84.6082 102.365 83.6916 102.365 82.6998Z" fill="white"/>
<path d="M132.966 87.3882C132.966 88.7406 132.725 89.9127 132.245 90.9045C131.794 91.8662 131.148 92.6626 130.306 93.2938C129.465 93.9249 128.473 94.4058 127.331 94.7364C126.219 95.0369 125.017 95.1872 123.724 95.1872C122.011 95.1872 120.253 94.9017 118.45 94.3306C116.677 93.7296 114.979 92.7979 113.356 91.5356L116.286 87.0275C117.608 87.9893 118.916 88.7106 120.208 89.1914C121.53 89.6723 122.763 89.9127 123.905 89.9127C124.896 89.9127 125.618 89.7474 126.068 89.4168C126.549 89.0862 126.79 88.6505 126.79 88.1095V88.0193C126.79 87.6587 126.654 87.3431 126.384 87.0726C126.114 86.8021 125.738 86.5767 125.257 86.3964C124.806 86.186 124.28 85.9907 123.679 85.8104C123.078 85.63 122.447 85.4347 121.786 85.2243C120.944 84.9839 120.088 84.6984 119.216 84.3678C118.375 84.0071 117.608 83.5563 116.917 83.0154C116.226 82.4443 115.655 81.7531 115.204 80.9416C114.783 80.1302 114.573 79.1384 114.573 77.9663V77.8762C114.573 76.6439 114.798 75.562 115.249 74.6303C115.73 73.6686 116.361 72.8572 117.142 72.196C117.954 71.5348 118.886 71.0389 119.937 70.7083C121.019 70.3777 122.176 70.2124 123.409 70.2124C124.941 70.2124 126.489 70.4679 128.052 70.9788C129.645 71.4597 131.102 72.1359 132.425 73.0074L129.81 77.7409C128.608 77.0497 127.436 76.5087 126.294 76.118C125.152 75.6972 124.145 75.4869 123.273 75.4869C122.432 75.4869 121.801 75.6522 121.38 75.9828C120.959 76.2833 120.749 76.674 120.749 77.1549V77.245C120.749 77.5756 120.884 77.8762 121.155 78.1466C121.425 78.3871 121.786 78.6275 122.237 78.8679C122.687 79.0783 123.198 79.2887 123.769 79.4991C124.37 79.7094 125.002 79.9198 125.663 80.1302C126.504 80.4007 127.361 80.7313 128.232 81.122C129.104 81.4826 129.885 81.9334 130.577 82.4744C131.268 83.0154 131.839 83.6765 132.29 84.4579C132.74 85.2393 132.966 86.186 132.966 87.298V87.3882Z" fill="white"/>
<path d="M135.173 100.597L146.488 55.2456H151.447L152.168 55.9669L141.484 101.318H135.894L135.173 100.597Z" fill="white"/>
<path d="M156.836 92.9331L153.951 91.175L163.373 77.6057L154.673 63.3151L157.558 61.5569L159.992 62.143L169.098 75.3967L170 77.6057L169.098 79.8146L159.271 92.3471L156.836 92.9331Z" fill="white"/>
</svg>
