<svg width="474" height="506" viewBox="0 0 474 506" fill="none" xmlns="http://www.w3.org/2000/svg">
<g clip-path="url(#clip0_21_36)">
<path d="M461.378 235.591C429.482 283.456 361.442 431.153 378.175 486.061H134.072C134.072 486.061 98.7887 459.776 64.5296 414.058C58.3006 405.757 52.099 396.8 46.1706 387.254C39.6569 376.816 33.7284 366.023 28.4127 354.925C12.5262 321.816 1.18842 283.442 0.723978 241.034C-0.901555 94.2801 126.013 -42.1621 298.675 12.8962C471.336 67.9544 493.247 187.794 461.378 235.591Z" fill="#FFFAFA"/>
<path d="M308.633 487.798C308.383 487.796 308.138 487.738 307.913 487.63C307.689 487.521 307.491 487.363 307.335 487.169L177.142 325.126C176.863 324.777 176.734 324.332 176.782 323.889C176.831 323.445 177.054 323.039 177.402 322.76C177.749 322.48 178.194 322.351 178.637 322.4C179.08 322.448 179.486 322.671 179.765 323.02L309.944 485.063C310.146 485.314 310.271 485.617 310.305 485.937C310.34 486.257 310.281 486.581 310.137 486.869C309.994 487.157 309.77 487.397 309.494 487.562C309.217 487.727 308.9 487.809 308.578 487.798H308.633Z" fill="#E03C03"/>
<path d="M106.698 487.798C106.316 487.796 105.945 487.666 105.646 487.428C105.3 487.147 105.08 486.74 105.034 486.296C104.988 485.853 105.119 485.409 105.4 485.063L235.579 323.019C235.711 322.829 235.88 322.669 236.076 322.547C236.273 322.425 236.492 322.346 236.721 322.313C236.949 322.28 237.182 322.294 237.405 322.355C237.628 322.416 237.835 322.523 238.015 322.668C238.195 322.813 238.343 322.994 238.45 323.199C238.557 323.404 238.62 323.628 238.636 323.859C238.653 324.09 238.621 324.321 238.544 324.539C238.467 324.757 238.346 324.957 238.188 325.126L108.009 487.169C107.852 487.365 107.652 487.524 107.425 487.633C107.198 487.741 106.949 487.798 106.698 487.798Z" fill="#F96B61"/>
<path d="M236.877 487.798C236.628 487.796 236.382 487.738 236.157 487.63C235.933 487.521 235.735 487.363 235.579 487.169L105.4 325.126C105.243 324.957 105.121 324.757 105.044 324.539C104.967 324.321 104.936 324.09 104.952 323.859C104.968 323.628 105.032 323.404 105.139 323.199C105.246 322.994 105.394 322.813 105.573 322.668C105.753 322.523 105.961 322.416 106.184 322.355C106.406 322.294 106.639 322.28 106.868 322.313C107.096 322.346 107.316 322.425 107.512 322.547C107.708 322.669 107.878 322.829 108.009 323.019L238.188 485.063C238.327 485.235 238.43 485.433 238.491 485.645C238.553 485.857 238.573 486.08 238.548 486.299C238.524 486.519 238.457 486.732 238.351 486.926C238.245 487.119 238.101 487.29 237.929 487.428C237.632 487.67 237.26 487.8 236.877 487.798Z" fill="#F96B61"/>
<path d="M129.769 328.367H69.2832C68.1468 328.363 67.0579 327.909 66.2543 327.105C65.4507 326.3 64.9976 325.21 64.994 324.072C64.994 322.932 65.4455 321.839 66.2495 321.031C67.0534 320.224 68.1444 319.768 69.2832 319.765H129.769C130.334 319.765 130.893 319.876 131.414 320.093C131.935 320.309 132.409 320.627 132.807 321.027C133.206 321.427 133.521 321.902 133.736 322.425C133.951 322.948 134.06 323.507 134.059 324.072C134.059 325.211 133.607 326.304 132.802 327.109C131.998 327.914 130.907 328.367 129.769 328.367Z" fill="#E03C03"/>
<path d="M303.783 328.367H130.917C129.787 328.363 128.705 327.915 127.902 327.12C127.1 326.324 126.642 325.244 126.628 324.114C126.628 322.973 127.079 321.88 127.883 321.072C128.687 320.265 129.778 319.809 130.917 319.806H303.783V328.367Z" fill="#F96B61"/>
<path d="M176.486 405.087C176.489 406.018 176.216 406.929 175.701 407.705C175.186 408.48 174.454 409.085 173.595 409.443C172.737 409.801 171.792 409.897 170.879 409.717C169.967 409.537 169.128 409.09 168.47 408.432C167.811 407.775 167.362 406.937 167.18 406.024C166.997 405.111 167.09 404.164 167.445 403.304C167.8 402.443 168.402 401.708 169.175 401.19C169.948 400.673 170.857 400.396 171.787 400.396C173.031 400.396 174.224 400.89 175.105 401.77C175.986 402.649 176.483 403.842 176.486 405.087Z" fill="#E03C03"/>
<path d="M248.242 405.087C248.245 406.018 247.972 406.929 247.457 407.705C246.942 408.48 246.209 409.085 245.351 409.443C244.492 409.801 243.547 409.897 242.635 409.717C241.722 409.537 240.884 409.09 240.225 408.432C239.567 407.775 239.118 406.937 238.935 406.024C238.753 405.111 238.845 404.164 239.201 403.304C239.556 402.443 240.158 401.708 240.931 401.19C241.704 400.673 242.613 400.396 243.543 400.396C244.787 400.396 245.98 400.89 246.861 401.77C247.742 402.649 248.239 403.842 248.242 405.087Z" fill="#F96B61"/>
<path d="M185.775 135.047H124.852C121.842 135.047 119.402 137.49 119.402 140.504V185.866C119.402 188.88 121.842 191.323 124.852 191.323H185.775C188.785 191.323 191.226 188.88 191.226 185.866V140.504C191.226 137.49 188.785 135.047 185.775 135.047Z" fill="#F96B61"/>
<path d="M170.9 159.896H168.646C168.311 158.675 167.8 157.51 167.129 156.436L168.864 154.686C169.023 154.528 169.149 154.34 169.235 154.134C169.32 153.927 169.365 153.706 169.365 153.482C169.365 153.258 169.32 153.037 169.235 152.83C169.149 152.624 169.023 152.436 168.864 152.279L166.419 149.831C166.262 149.672 166.074 149.546 165.868 149.46C165.662 149.374 165.44 149.33 165.217 149.33C164.994 149.33 164.772 149.374 164.566 149.46C164.36 149.546 164.172 149.672 164.015 149.831L162.171 151.677C161.145 151.075 160.042 150.615 158.892 150.309V147.574C158.892 147.123 158.714 146.69 158.397 146.37C158.08 146.05 157.649 145.868 157.199 145.865H153.729C153.278 145.868 152.848 146.05 152.53 146.37C152.213 146.69 152.035 147.123 152.035 147.574V150.432C150.923 150.715 149.853 151.143 148.852 151.704L146.831 149.667C146.673 149.508 146.486 149.382 146.28 149.296C146.073 149.21 145.852 149.166 145.629 149.166C145.405 149.166 145.184 149.21 144.978 149.296C144.771 149.382 144.584 149.508 144.427 149.667L141.968 152.115C141.654 152.436 141.478 152.868 141.478 153.318C141.478 153.768 141.654 154.2 141.968 154.521L143.853 156.409C143.222 157.42 142.726 158.51 142.378 159.65H139.728C139.277 159.653 138.846 159.835 138.529 160.155C138.212 160.476 138.034 160.908 138.034 161.359V164.819C138.034 165.269 138.212 165.7 138.53 166.018C138.847 166.336 139.278 166.515 139.728 166.515H142.063C142.318 167.784 142.756 169.009 143.361 170.153L141.777 171.739C141.463 172.061 141.287 172.493 141.287 172.943C141.287 173.392 141.463 173.824 141.777 174.146L144.235 176.594C144.557 176.908 144.988 177.084 145.437 177.084C145.887 177.084 146.318 176.908 146.639 176.594L148.005 175.226C149.161 175.986 150.429 176.558 151.762 176.922V178.85C151.76 179.074 151.803 179.295 151.887 179.502C151.972 179.708 152.096 179.896 152.254 180.054C152.412 180.211 152.599 180.336 152.805 180.421C153.012 180.505 153.233 180.548 153.456 180.546H156.912C157.135 180.548 157.357 180.506 157.564 180.421C157.771 180.337 157.96 180.212 158.118 180.054C158.277 179.897 158.403 179.709 158.489 179.503C158.575 179.296 158.619 179.074 158.619 178.85V177.059C159.985 176.736 161.293 176.205 162.499 175.486L163.865 176.854C164.186 177.168 164.618 177.344 165.067 177.344C165.516 177.344 165.947 177.168 166.269 176.854L168.714 174.406C168.873 174.248 168.998 174.061 169.084 173.854C169.17 173.648 169.214 173.426 169.214 173.202C169.214 172.979 169.17 172.757 169.084 172.551C168.998 172.344 168.873 172.157 168.714 171.999L167.348 170.631C168.028 169.459 168.53 168.191 168.837 166.871H170.941C171.393 166.871 171.828 166.69 172.148 166.37C172.468 166.049 172.648 165.615 172.648 165.161V161.701C172.661 161.465 172.626 161.229 172.543 161.008C172.461 160.786 172.333 160.584 172.169 160.415C172.005 160.245 171.807 160.112 171.589 160.022C171.37 159.933 171.135 159.89 170.9 159.896ZM157.171 172.204C155.334 172.575 153.425 172.344 151.729 171.545C150.033 170.746 148.639 169.422 147.753 167.768C146.867 166.114 146.536 164.218 146.81 162.362C147.084 160.505 147.947 158.786 149.273 157.459C150.598 156.132 152.316 155.267 154.17 154.993C156.025 154.719 157.918 155.05 159.57 155.937C161.222 156.824 162.545 158.22 163.343 159.918C164.141 161.616 164.372 163.527 164.001 165.366C163.665 167.057 162.837 168.61 161.622 169.831C160.407 171.053 158.858 171.888 157.171 172.231V172.204Z" fill="white"/>
<path d="M277.515 103.963H216.592C213.582 103.963 211.142 106.405 211.142 109.419V154.781C211.142 157.795 213.582 160.238 216.592 160.238H277.515C280.526 160.238 282.966 157.795 282.966 154.781V109.419C282.966 106.405 280.526 103.963 277.515 103.963Z" fill="#F96B61"/>
<path d="M234.951 141.557C234.728 141.557 234.507 141.511 234.302 141.422C234.098 141.333 233.914 141.202 233.763 141.037L226.195 132.928C225.878 132.58 225.703 132.126 225.703 131.656C225.703 131.185 225.878 130.732 226.195 130.384L233.899 122.178C234.049 122.014 234.231 121.882 234.435 121.792C234.638 121.702 234.858 121.656 235.081 121.656C235.303 121.656 235.523 121.702 235.727 121.792C235.93 121.882 236.113 122.014 236.262 122.178C236.579 122.526 236.755 122.98 236.755 123.45C236.755 123.921 236.579 124.375 236.262 124.722L229.747 131.697L236.139 138.535C236.456 138.882 236.632 139.336 236.632 139.806C236.632 140.277 236.456 140.731 236.139 141.078C235.986 141.236 235.8 141.361 235.596 141.443C235.391 141.526 235.171 141.564 234.951 141.557Z" fill="white"/>
<path d="M259.184 141.557C258.96 141.559 258.739 141.514 258.534 141.424C258.329 141.335 258.146 141.203 257.995 141.037C257.679 140.69 257.503 140.236 257.503 139.765C257.503 139.295 257.679 138.841 257.995 138.494L264.375 131.656L257.872 124.681C257.556 124.333 257.38 123.88 257.38 123.409C257.38 122.939 257.556 122.485 257.872 122.137C258.022 121.973 258.205 121.841 258.408 121.751C258.612 121.661 258.832 121.615 259.054 121.615C259.276 121.615 259.496 121.661 259.7 121.751C259.903 121.841 260.086 121.973 260.236 122.137L267.94 130.343C268.257 130.691 268.432 131.144 268.432 131.615C268.432 132.085 268.257 132.539 267.94 132.887L260.358 140.996C260.215 141.169 260.035 141.309 259.832 141.405C259.63 141.502 259.408 141.554 259.184 141.557Z" fill="white"/>
<path d="M243.297 143.786C243.082 143.786 242.868 143.744 242.669 143.663C242.246 143.46 241.916 143.105 241.744 142.669C241.571 142.233 241.57 141.748 241.74 141.311L249.253 121.536C249.325 121.323 249.441 121.127 249.592 120.96C249.743 120.794 249.927 120.66 250.132 120.568C250.337 120.476 250.559 120.426 250.784 120.424C251.008 120.421 251.231 120.464 251.439 120.551C251.86 120.751 252.19 121.103 252.363 121.537C252.535 121.971 252.537 122.454 252.367 122.89L244.854 142.665C244.737 142.986 244.526 143.265 244.248 143.465C243.97 143.665 243.639 143.777 243.297 143.786Z" fill="white"/>
<path d="M183.603 164.108H330.256C330.858 164.108 331.435 164.347 331.86 164.773C332.285 165.199 332.524 165.776 332.524 166.378V171.028H181.336V166.378C181.336 165.776 181.575 165.199 182 164.773C182.425 164.347 183.002 164.108 183.603 164.108Z" fill="white"/>
<path d="M181.336 171.055H332.524V247.53C332.524 248.65 332.079 249.725 331.288 250.518C330.496 251.31 329.423 251.756 328.303 251.756H185.557C184.437 251.756 183.364 251.31 182.572 250.518C181.78 249.725 181.336 248.65 181.336 247.53V171.055Z" fill="#585863"/>
<path d="M325.271 167.595C325.271 167.806 325.208 168.013 325.091 168.188C324.974 168.363 324.807 168.5 324.613 168.581C324.418 168.662 324.204 168.683 323.997 168.642C323.79 168.6 323.601 168.499 323.452 168.35C323.303 168.201 323.201 168.01 323.16 167.804C323.119 167.597 323.14 167.382 323.221 167.187C323.301 166.992 323.438 166.826 323.613 166.708C323.788 166.591 323.994 166.529 324.205 166.529C324.488 166.529 324.759 166.641 324.958 166.841C325.158 167.041 325.271 167.313 325.271 167.595Z" fill="#F96B61"/>
<path d="M317.962 167.595C317.962 167.806 317.9 168.013 317.783 168.188C317.666 168.363 317.499 168.5 317.305 168.581C317.11 168.662 316.896 168.683 316.689 168.642C316.482 168.6 316.293 168.499 316.144 168.35C315.995 168.201 315.893 168.01 315.852 167.804C315.811 167.597 315.832 167.382 315.913 167.187C315.993 166.992 316.13 166.826 316.305 166.708C316.48 166.591 316.686 166.529 316.897 166.529C317.18 166.529 317.451 166.641 317.65 166.841C317.85 167.041 317.962 167.313 317.962 167.595Z" fill="#F96B61"/>
<path d="M310.654 167.595C310.654 167.806 310.592 168.013 310.475 168.188C310.358 168.363 310.191 168.5 309.997 168.581C309.802 168.662 309.588 168.683 309.381 168.642C309.174 168.6 308.985 168.499 308.836 168.35C308.687 168.201 308.585 168.01 308.544 167.804C308.503 167.597 308.524 167.382 308.605 167.187C308.685 166.992 308.822 166.826 308.997 166.708C309.172 166.591 309.378 166.529 309.589 166.529C309.872 166.529 310.143 166.641 310.342 166.841C310.542 167.041 310.654 167.313 310.654 167.595Z" fill="#F96B61"/>
<path d="M273.199 181.955H189.177C188.789 181.955 188.417 181.801 188.143 181.526C187.869 181.252 187.715 180.88 187.715 180.492C187.715 180.103 187.869 179.731 188.143 179.457C188.417 179.182 188.789 179.028 189.177 179.028H273.199C273.574 179.053 273.926 179.222 274.181 179.499C274.435 179.777 274.573 180.142 274.565 180.519C274.559 180.886 274.415 181.238 274.162 181.504C273.909 181.77 273.565 181.931 273.199 181.955Z" fill="#F96B61"/>
<path d="M273.199 191.268H189.177C188.789 191.268 188.417 191.114 188.143 190.839C187.869 190.565 187.715 190.193 187.715 189.805C187.715 189.417 187.869 189.044 188.143 188.77C188.417 188.496 188.789 188.341 189.177 188.341H273.199C273.587 188.341 273.958 188.496 274.232 188.77C274.506 189.044 274.66 189.417 274.66 189.805C274.66 190.193 274.506 190.565 274.232 190.839C273.958 191.114 273.587 191.268 273.199 191.268Z" fill="white"/>
<path d="M233.08 200.581H189.177C188.789 200.581 188.417 200.427 188.143 200.153C187.869 199.878 187.715 199.506 187.715 199.118C187.715 198.73 187.869 198.358 188.143 198.083C188.417 197.809 188.789 197.655 189.177 197.655H233.08C233.467 197.655 233.839 197.809 234.113 198.083C234.387 198.358 234.541 198.73 234.541 199.118C234.541 199.506 234.387 199.878 234.113 200.153C233.839 200.427 233.467 200.581 233.08 200.581Z" fill="white"/>
<path d="M273.199 219.194H189.177C188.789 219.194 188.417 219.04 188.143 218.765C187.869 218.491 187.715 218.119 187.715 217.73C187.715 217.342 187.869 216.97 188.143 216.696C188.417 216.421 188.789 216.267 189.177 216.267H273.199C273.587 216.267 273.958 216.421 274.232 216.696C274.506 216.97 274.66 217.342 274.66 217.73C274.66 218.119 274.506 218.491 274.232 218.765C273.958 219.04 273.587 219.194 273.199 219.194Z" fill="white"/>
<path d="M233.08 228.507H189.177C188.789 228.507 188.417 228.353 188.143 228.078C187.869 227.804 187.715 227.432 187.715 227.044C187.715 226.655 187.869 226.283 188.143 226.009C188.417 225.734 188.789 225.58 189.177 225.58H233.08C233.463 225.58 233.83 225.731 234.104 225.999C234.377 226.268 234.534 226.633 234.541 227.016C234.545 227.211 234.51 227.404 234.438 227.585C234.366 227.765 234.259 227.93 234.123 228.069C233.987 228.207 233.824 228.318 233.645 228.393C233.466 228.468 233.274 228.507 233.08 228.507Z" fill="white"/>
<path d="M233.08 237.82H189.177C188.789 237.82 188.417 237.666 188.143 237.391C187.869 237.117 187.715 236.745 187.715 236.357C187.715 235.969 187.869 235.596 188.143 235.322C188.417 235.048 188.789 234.893 189.177 234.893H233.08C233.467 234.893 233.839 235.048 234.113 235.322C234.387 235.596 234.541 235.969 234.541 236.357C234.541 236.745 234.387 237.117 234.113 237.391C233.839 237.666 233.467 237.82 233.08 237.82Z" fill="white"/>
<path d="M273.199 200.581H241.644C241.257 200.581 240.885 200.427 240.611 200.153C240.337 199.878 240.183 199.506 240.183 199.118C240.183 198.73 240.337 198.358 240.611 198.083C240.885 197.809 241.257 197.655 241.644 197.655H273.199C273.57 197.679 273.917 197.844 274.171 198.116C274.425 198.387 274.566 198.746 274.565 199.118C274.566 199.49 274.425 199.848 274.171 200.12C273.917 200.392 273.57 200.557 273.199 200.581Z" fill="white"/>
<path d="M314.793 179.671L292.487 202.003C292.352 202.14 292.191 202.249 292.014 202.323C291.837 202.397 291.647 202.436 291.455 202.436C291.263 202.436 291.073 202.397 290.896 202.323C290.719 202.249 290.559 202.14 290.424 202.003C290.287 201.869 290.179 201.708 290.105 201.531C290.031 201.353 289.992 201.163 289.992 200.971C289.992 200.779 290.031 200.589 290.105 200.411C290.179 200.234 290.287 200.073 290.424 199.938L312.731 177.606C312.865 177.469 313.026 177.36 313.203 177.286C313.38 177.212 313.57 177.174 313.762 177.174C313.954 177.174 314.144 177.212 314.321 177.286C314.498 177.36 314.659 177.469 314.793 177.606C314.93 177.741 315.039 177.902 315.113 178.079C315.187 178.256 315.225 178.446 315.225 178.639C315.225 178.831 315.187 179.021 315.113 179.198C315.039 179.375 314.93 179.536 314.793 179.671Z" fill="#F96B61"/>
<path d="M315.428 224.971C317.104 217.894 312.732 210.796 305.663 209.118C298.594 207.44 291.505 211.816 289.828 218.893C288.152 225.971 292.524 233.068 299.593 234.746C306.662 236.425 313.751 232.048 315.428 224.971Z" fill="#F96B61"/>
<path d="M300.888 231.119C300.888 232.593 300.451 234.034 299.633 235.26C298.815 236.485 297.652 237.441 296.292 238.005C294.931 238.569 293.435 238.717 291.99 238.429C290.546 238.141 289.22 237.432 288.179 236.389C287.138 235.347 286.429 234.019 286.141 232.573C285.854 231.127 286.001 229.629 286.565 228.267C287.128 226.905 288.083 225.741 289.307 224.922C290.531 224.103 291.97 223.666 293.443 223.666C295.417 223.666 297.311 224.451 298.707 225.849C300.103 227.246 300.888 229.142 300.888 231.119Z" fill="#F96B61"/>
<path d="M181.336 243.577V270.204L205.787 245.738" fill="#585863"/>
<path d="M155.314 277.411H208.956L228.34 314.773H174.711L155.314 277.411Z" fill="#C6C6D5"/>
<path d="M175.803 312.011L159.739 281.076C159.674 280.93 159.646 280.77 159.657 280.611C159.668 280.451 159.719 280.297 159.804 280.162C159.889 280.026 160.006 279.914 160.145 279.835C160.284 279.756 160.44 279.713 160.6 279.709H207.044C207.221 279.707 207.396 279.754 207.548 279.846C207.7 279.938 207.823 280.07 207.904 280.228L223.968 311.176C224.03 311.323 224.056 311.482 224.043 311.64C224.03 311.798 223.979 311.951 223.895 312.085C223.81 312.219 223.695 312.331 223.558 312.411C223.421 312.491 223.266 312.537 223.108 312.544H176.664C176.485 312.545 176.31 312.495 176.157 312.401C176.005 312.306 175.883 312.171 175.803 312.011Z" fill="white"/>
<path d="M218.149 314.773H174.711V319.765H218.149V314.773Z" fill="#E3E3EC"/>
<path d="M255.441 314.773H212.603C212.276 314.773 211.951 314.838 211.649 314.964C211.346 315.09 211.072 315.274 210.841 315.507C210.61 315.739 210.427 316.015 210.303 316.319C210.178 316.623 210.115 316.948 210.117 317.276C210.115 317.603 210.178 317.928 210.303 318.23C210.427 318.533 210.61 318.808 210.841 319.04C211.073 319.271 211.347 319.454 211.65 319.579C211.952 319.703 212.276 319.766 212.603 319.765H255.441C255.768 319.766 256.092 319.703 256.394 319.579C256.697 319.454 256.972 319.271 257.203 319.04C257.434 318.808 257.617 318.533 257.741 318.23C257.866 317.928 257.929 317.603 257.927 317.276C257.929 316.948 257.866 316.623 257.742 316.319C257.618 316.015 257.435 315.739 257.204 315.507C256.973 315.274 256.698 315.09 256.395 314.964C256.093 314.838 255.769 314.773 255.441 314.773Z" fill="#585863"/>
<path d="M174.711 314.773L155.314 277.411L154.344 278.136C154.041 278.365 153.829 278.694 153.746 279.065C153.664 279.436 153.716 279.824 153.893 280.16L174.711 319.819V314.773Z" fill="#E3E3EC"/>
<path d="M194.244 317.112H189.463V317.946H194.244V317.112Z" fill="#9FCCC9"/>
<path d="M200.255 317.112H195.474V317.946H200.255V317.112Z" fill="#9FCCC9"/>
<path d="M206.265 317.112H201.484V317.946H206.265V317.112Z" fill="#9FCCC9"/>
<path d="M272.489 387.924C272.489 387.924 228.012 422.606 220.95 431.413C218.286 434.75 213.655 440.589 208.847 446.579C200.951 456.412 192.578 466.669 191.581 466.915C189.996 467.312 176.637 457.137 176.241 454.949C175.995 453.581 188.152 432.698 198.67 415.905C205.077 405.703 210.869 396.991 212.904 395.104C218.272 390.112 251.37 372.566 251.37 372.566L272.489 387.924Z" fill="#585863"/>
<g style="mix-blend-mode:overlay" opacity="0.15">
<path d="M187.592 459.503C187.592 459.503 229.159 400.273 250.018 390.304" stroke="black" stroke-width="0.82" stroke-miterlimit="10" stroke-linecap="round"/>
</g>
<path d="M318.864 235.851C318.386 236.931 317.853 238.039 317.252 239.188C313.987 245.41 316.392 251.646 312.69 253.232C312.447 253.334 312.196 253.412 311.938 253.465C307.157 254.532 296.134 248.159 295.642 244.959C295.15 241.759 299.043 236.316 295.642 235.646C292.241 234.975 290.41 240.706 290.41 240.706C287.678 241.006 286.627 236.316 282.037 236.316C281.396 236.315 280.758 236.398 280.138 236.562C278.19 237.12 276.392 238.111 274.879 239.461C274.39 239.882 273.934 240.34 273.513 240.829C272.283 239.967 271.283 238.815 270.604 237.474C269.925 236.134 269.587 234.646 269.62 233.143C269.948 225.074 272.926 219.194 280.097 217.99C280.889 209.019 288.293 204.219 298.128 203.918C306.761 203.658 308.059 211.426 308.264 213.368C308.147 210.065 307.278 206.833 305.723 203.918C310.053 203.727 313.919 206.817 312.867 216.896C313.865 213.901 317.361 212 320.039 214.161C317.553 214.161 315.162 218.346 315.162 218.346C317.166 219.738 318.84 221.554 320.066 223.666C321.692 226.538 321.009 230.763 318.864 235.851Z" fill="#382424"/>
<path d="M312.69 253.232L312.58 254.709L312.198 259.947C312.198 259.947 304.234 266.785 299.713 259.947L299.617 259.81C298.251 257.732 296.953 257.075 295.806 256.87C293.306 256.569 291.298 259.004 289.222 256.364C284.799 250.509 281.7 243.762 280.138 236.589C280.758 236.425 281.396 236.342 282.037 236.343C286.627 236.343 287.624 241.034 290.41 240.733C290.41 240.733 292.254 235.016 295.642 235.673C299.03 236.329 295.164 241.8 295.642 244.986C295.861 246.354 298.169 248.473 301.106 250.224C304.507 252.262 308.756 253.889 311.46 253.574L311.938 253.492C312.197 253.43 312.448 253.343 312.69 253.232Z" fill="#FFAD94"/>
<g style="mix-blend-mode:overlay" opacity="0.25">
<path d="M313.933 262.983C310.34 265.431 303.77 265.841 303.77 265.841L298.388 265.048C298.388 265.048 296.134 261.78 297.186 259.947C297.568 259.404 298.028 258.92 298.552 258.511C300.481 257.002 302.548 255.679 304.726 254.559C306.834 253.338 309.15 252.517 311.556 252.138C316.187 251.879 317.512 260.522 313.933 262.983Z" fill="black"/>
</g>
<path d="M312.813 350.289C304.808 351.834 287.87 347.116 279.756 343.451C278.1 342.879 276.592 341.945 275.343 340.716C273.786 337.981 275.343 335.861 279.209 327.149C279.646 326.165 280.111 325.112 280.575 323.949C283.184 317.782 283.198 304.639 283.184 293.289C283.184 283.592 283.116 275.223 284.66 273.732C287.993 270.505 304.671 259.947 304.671 259.947L308.004 277.274C308.004 277.274 309.876 286.081 311.856 297.555C315.545 318.643 319.643 348.99 312.813 350.289Z" fill="#F96B61"/>
<path d="M318.441 358.002C318.441 358.795 310.477 377.408 303.783 380.074C297.09 382.741 256.807 379.801 256.807 379.801L236.877 392.847L241.057 432.151L243.967 459.503L244.049 460.392C237.956 464.371 222.602 465.438 220.95 462.005C219.351 458.545 194.914 384.861 204.489 372.101C214.065 359.342 275.412 340.716 275.412 340.716C277.149 341.787 278.978 342.702 280.876 343.451C288.014 346.109 295.42 347.98 302.964 349.031C305.491 349.427 307.717 349.714 309.425 349.92C311.57 350.179 312.867 350.275 312.867 350.275C312.867 350.275 318.441 357.195 318.441 358.002Z" fill="#585863"/>
<path d="M246.576 486.061H194.763C194.671 485.568 194.703 485.06 194.855 484.583C195.008 484.105 195.277 483.673 195.638 483.326C197.741 480.796 203 478.252 208.082 476.05C212.904 473.972 217.535 472.18 219.01 470.949C222.671 468.05 220.977 462.416 220.881 462.06C221.441 463.223 223.613 463.865 226.345 464.057C231.809 464.453 240.005 463.086 243.98 460.446L243.898 459.557C245.428 462.511 246.166 477.117 246.412 483.326C246.548 484.994 246.576 486.061 246.576 486.061Z" fill="#F96B61"/>
<path d="M226.414 464.016C226.263 466.491 225.908 470.498 225.184 471.565C224.132 473.165 212.699 478.758 211.114 478.225C209.968 477.692 208.938 476.939 208.082 476.009C212.904 473.931 217.535 472.139 219.01 470.908C222.671 468.009 220.977 462.375 220.881 462.019C221.51 463.181 223.627 463.824 226.414 464.016Z" fill="#F8A39D"/>
<path d="M246.576 486.061H194.763C194.671 485.568 194.703 485.06 194.855 484.583C195.008 484.105 195.277 483.673 195.638 483.326H246.48C246.548 484.994 246.576 486.061 246.576 486.061Z" fill="#F8A39D"/>
<path d="M191.581 466.915C189.52 472.366 187.064 477.659 184.232 482.751C182.866 484.953 181.595 486.375 180.694 486.02C177.497 484.83 145.478 457.574 148.552 455.578C149.185 455.234 149.883 455.029 150.601 454.976C154.5 454.761 158.411 454.916 162.28 455.441C165.941 455.824 169.356 456.234 171.132 456.234C175.653 456.234 176.241 454.867 176.241 454.867C176.776 455.926 177.53 456.858 178.454 457.602C182.415 461.445 190.379 467.216 191.581 466.915Z" fill="#F96B61"/>
<path d="M178.453 457.684C176.22 459.189 173.618 460.054 170.929 460.187C168.24 460.319 165.566 459.714 163.195 458.436C162.797 458.067 162.503 457.6 162.342 457.082C162.181 456.563 162.16 456.012 162.28 455.482C165.941 455.865 169.356 456.275 171.132 456.275C175.653 456.275 176.241 454.908 176.241 454.908C176.771 455.981 177.525 456.928 178.453 457.684Z" fill="#F8A39D"/>
<path d="M184.232 482.751C182.866 484.953 181.595 486.375 180.694 486.02C177.497 484.83 145.478 457.574 148.552 455.578C149.185 455.234 149.883 455.029 150.601 454.976L184.232 482.751Z" fill="#F8A39D"/>
<path d="M279.838 316.346C277.338 319.833 272.844 325.167 269.156 324.62L268.705 324.551C261.656 323.307 220.239 312.899 218.272 312.517C216.305 312.134 202.345 311.983 203.137 310.52C203.929 309.057 211.907 304.407 214.065 304.516C216.223 304.626 224.569 307.06 232.929 306.8C241.289 306.54 263.213 306.8 263.213 306.8L264.279 304.954L265.85 302.219C265.372 310.438 275.152 317.002 279.838 316.346Z" fill="#FFAD94"/>
<g style="mix-blend-mode:overlay" opacity="0.15">
<path d="M279.838 346.624C279.838 346.624 277.925 356.798 285.37 360.19" stroke="black" stroke-width="0.82" stroke-miterlimit="10" stroke-linecap="round"/>
</g>
<g style="mix-blend-mode:overlay" opacity="0.15">
<path d="M275.931 354.802C275.931 354.802 226.755 375.821 224.365 382.331C221.974 388.841 236.877 459.503 236.877 459.503" stroke="black" stroke-width="0.82" stroke-miterlimit="10" stroke-linecap="round"/>
</g>
<g style="mix-blend-mode:overlay" opacity="0.15">
<path d="M318.441 358.002C318.441 358.795 310.477 377.408 303.783 380.074C297.09 382.741 256.807 379.801 256.807 379.801L236.877 392.847L241.057 432.151C241.057 432.151 232.629 387.281 232.629 384.286C232.629 381.784 288.293 365.77 302.964 349.003C308.701 349.92 312.867 350.248 312.867 350.248C312.867 350.248 318.441 357.195 318.441 358.002Z" fill="black"/>
</g>
<g style="mix-blend-mode:overlay" opacity="0.25">
<path d="M292.2 310.438C288.744 315.347 283.184 321.57 279.264 327.204C279.701 326.22 280.165 325.167 280.63 324.004C283.239 317.836 283.253 304.694 283.239 293.343L295.178 285.452C295.178 285.452 297.787 302.479 292.2 310.438Z" fill="black"/>
</g>
<path d="M282.023 314.828C281.504 315.306 280.985 315.771 280.452 316.195C280.253 316.263 280.047 316.309 279.838 316.332C275.152 316.989 265.372 310.356 265.809 302.232C266.08 301.036 266.541 299.891 267.175 298.841C271.177 290.759 283.212 272.775 285.424 273.609C285.424 273.609 293.17 274.799 295.273 285.384C297.172 295.395 290.069 307.361 282.023 314.828Z" fill="#585863"/>
<g style="mix-blend-mode:overlay" opacity="0.25">
<path d="M309.425 349.933C307.718 349.728 305.491 349.441 302.964 349.044C295.42 347.994 288.014 346.123 280.876 343.465C286.886 343.246 299.767 339.362 301.366 309.795C302.112 315.539 303.198 321.233 304.617 326.849C306.604 334.458 308.209 342.163 309.425 349.933Z" fill="black"/>
</g>
<g style="mix-blend-mode:overlay" opacity="0.25">
<path d="M306.242 252.644C305.717 253.253 305.229 253.892 304.781 254.559C302.605 255.666 300.537 256.976 298.606 258.47C297.911 257.591 296.912 257.005 295.806 256.829L301.106 250.155C302.732 251.152 304.452 251.986 306.242 252.644Z" fill="black"/>
</g>
<g style="mix-blend-mode:overlay" opacity="0.25">
<path d="M279.838 316.346C277.338 319.833 272.844 325.167 269.155 324.62L268.705 324.551C264.142 317.946 263.978 309.289 264.238 304.954L265.809 302.219C265.372 310.438 275.152 317.002 279.838 316.346Z" fill="black"/>
</g>
<g style="mix-blend-mode:overlay" opacity="0.25">
<path d="M318.864 235.851C318.386 236.931 317.853 238.039 317.252 239.188C315.989 241.891 315.278 244.821 315.162 247.803C314.635 247.402 314.088 247.027 313.523 246.682C310.788 248.26 308.329 250.274 306.242 252.644C301.379 250.894 295.997 247.174 295.656 244.945C295.178 241.759 299.057 236.302 295.656 235.632C292.254 234.962 290.424 240.692 290.424 240.692C287.692 240.993 286.64 236.302 282.05 236.302C281.41 236.301 280.771 236.384 280.152 236.548C278.203 237.107 276.406 238.098 274.893 239.447C274.893 239.447 280.07 232.172 288.17 233.649C288.17 233.649 286.982 231.379 281.531 231.652C292.951 227.919 300.259 229.396 303.783 233.512C306.638 236.89 313.373 241.061 318.864 235.851Z" fill="black"/>
</g>
<path d="M342.086 392.847H302.226C302.226 392.847 333.849 383.534 333.849 320.763C333.849 319.956 333.849 319.163 333.849 318.37C333.535 276.413 324.574 253.274 313.537 246.682C317.934 244.163 322.701 242.354 327.661 241.321C330.564 240.692 333.501 240.236 336.458 239.953C363.778 237.218 385.552 247.885 388.147 260.002C390.743 272.119 374.761 392.847 342.086 392.847Z" fill="#E3E3EC"/>
<path d="M333.849 320.763C333.849 383.534 302.226 392.847 302.226 392.847H236.877L239.609 390.906L256.821 379.801L291.339 377.449C293.197 369.736 298.251 369.489 305.955 368.683C310.436 368.218 310.873 360.641 309.507 350.617C308.298 342.613 306.665 334.679 304.617 326.849C303.196 321.22 302.111 315.512 301.366 309.754C300.579 303.64 300.164 297.484 300.123 291.319C300.019 280.349 301.068 269.399 303.251 258.648C303.415 257.855 303.579 257.089 303.742 256.364C303.742 256.364 303.742 256.364 303.742 256.296C304.391 254.979 305.214 253.756 306.188 252.658C308.275 250.287 310.734 248.274 313.468 246.696C314.034 247.041 314.581 247.415 315.108 247.817C325.38 255.653 333.467 278.519 333.781 318.383C333.849 319.163 333.849 320.011 333.849 320.763Z" fill="#C6C6D5"/>
<path d="M321.241 486.061H274.196C273.843 486.061 273.498 485.95 273.211 485.745C272.924 485.539 272.708 485.249 272.593 484.914C272.479 484.58 272.472 484.218 272.573 483.879C272.674 483.54 272.879 483.242 273.158 483.025L284.919 473.807C287.502 471.784 289.59 469.198 291.025 466.245C292.459 463.292 293.202 460.051 293.197 456.768V392.847H302.226V456.768C302.228 460.047 302.976 463.284 304.412 466.231C305.849 469.179 307.937 471.76 310.518 473.78L322.279 482.998C322.57 483.211 322.785 483.511 322.893 483.855C323.002 484.199 322.998 484.569 322.882 484.91C322.766 485.252 322.545 485.548 322.25 485.755C321.954 485.962 321.601 486.069 321.241 486.061Z" fill="#E3E3EC"/>
<g style="mix-blend-mode:overlay" opacity="0.25">
<path d="M357.126 242.306C357.126 242.306 357.467 243.195 358.027 244.959" stroke="black" stroke-width="0.82" stroke-miterlimit="10" stroke-linecap="round"/>
<path d="M359.612 250.402C361.994 259.635 363.773 269.013 364.939 278.478C369.215 311.505 364.871 357.865 336.171 387.24" stroke="black" stroke-width="0.82" stroke-miterlimit="10" stroke-linecap="round" stroke-dasharray="4.15 4.15"/>
<path d="M334.149 389.251C333.48 389.894 332.783 390.523 332.1 391.152" stroke="black" stroke-width="0.82" stroke-miterlimit="10" stroke-linecap="round"/>
</g>
<g style="mix-blend-mode:overlay" opacity="0.15">
<path d="M302.226 392.847V410.27C299.318 411.768 296.3 413.039 293.197 414.072V392.847H302.226Z" fill="black"/>
</g>
<g style="mix-blend-mode:overlay" opacity="0.15">
<path d="M314.725 365.715C312.594 372.361 299.33 371.185 297.718 376.095C294.303 386.529 292.405 381.934 279.264 383.261C271.751 384.027 266.301 388.854 263.009 392.834H236.877L239.609 390.892L256.821 379.787L291.339 377.449C293.197 369.736 298.251 369.489 305.955 368.683C310.436 368.218 310.873 360.641 309.507 350.617C308.298 342.613 306.665 334.679 304.617 326.849C303.196 321.22 302.111 315.512 301.366 309.754C300.579 303.64 300.164 297.484 300.123 291.319C305.19 318.014 316.296 360.792 314.725 365.715Z" fill="black"/>
</g>
<g style="mix-blend-mode:overlay" opacity="0.15">
<path d="M333.849 320.763C333.849 319.956 333.849 319.163 333.849 318.37C333.535 276.413 324.574 253.274 313.537 246.682C317.934 244.163 322.701 242.354 327.661 241.321C325.831 243.96 323.932 247.913 324.833 252.125C326.432 259.592 344.49 288.311 337.592 334.329C332.606 367.534 334.259 384.806 339.463 392.847H302.226C302.226 392.847 333.849 383.534 333.849 320.763Z" fill="black"/>
</g>
<g style="mix-blend-mode:overlay" opacity="0.25">
<path d="M105.81 286.574C105.802 287.953 105.656 289.327 105.373 290.676H92.5598C86.8068 286.96 82.1032 281.828 78.8998 275.77C82.3285 279.503 88.1886 284.057 94.158 285.452C99.4171 286.601 103.296 286.081 105.81 286.574Z" fill="black"/>
</g>
<path d="M135.589 235.591C134.223 240.801 127.598 250.894 121.601 261.711C115.044 273.5 109.198 286.136 111.479 294.164C111.953 295.639 112.233 297.17 112.312 298.718C112.312 302.219 109.689 301.125 107.012 299.155C105.068 297.631 103.242 295.963 101.548 294.164L101.753 278.615C101.753 278.615 92.9423 270.505 100.168 252.781C100.633 251.66 101.152 250.497 101.753 249.28C111.711 229.136 126.655 207.993 112.503 202.003C132.01 200.8 138.58 224.705 135.589 235.591Z" fill="#F96B61"/>
<g style="mix-blend-mode:overlay" opacity="0.53">
<path d="M112.476 202.003C116.151 202.891 119.333 205.183 121.341 208.39C121.857 209.17 122.314 209.989 122.707 210.838C123.085 211.697 123.409 212.578 123.677 213.477C123.959 214.372 124.173 215.286 124.319 216.212L124.565 217.58L124.661 218.948C124.409 222.706 123.556 226.4 122.134 229.888C120.768 233.403 119.32 236.822 117.776 240.213C114.662 247.051 111.301 253.67 108.351 260.508C106.842 263.9 105.537 267.38 104.444 270.929C103.91 272.685 103.521 274.483 103.283 276.303C102.992 278.067 103.114 279.874 103.638 281.582C103.683 281.722 103.672 281.873 103.608 282.006C103.545 282.138 103.433 282.241 103.296 282.293C103.155 282.342 103 282.334 102.865 282.27C102.73 282.206 102.625 282.092 102.572 281.951C102.014 280.076 101.893 278.097 102.217 276.167C102.495 274.29 102.92 272.438 103.488 270.628C104.644 267.058 106.013 263.56 107.586 260.152C110.632 253.315 114.074 246.709 117.271 239.967C118.855 236.603 120.399 233.198 121.737 229.724C123.186 226.301 124.077 222.667 124.374 218.961L124.305 217.594L124.087 216.226C123.944 215.301 123.739 214.388 123.472 213.491C123.214 212.6 122.909 211.724 122.557 210.865C122.156 210.02 121.7 209.202 121.191 208.417C119.222 205.234 116.099 202.935 112.476 202.003Z" fill="black"/>
</g>
<path d="M126.628 267.031C120.658 282.799 126.628 294.752 117.653 296.448C113.555 297.241 111.738 294.191 110.987 290.649C110.462 287.661 110.361 284.613 110.687 281.596C111.875 278.819 113.468 276.234 115.413 273.924C118.205 270.355 122.185 267.909 126.628 267.031Z" fill="#585863"/>
<path d="M105.81 286.574C105.81 290.239 104.949 293.412 103.242 294.984C103.088 295.142 102.924 295.288 102.75 295.422C98.5155 298.855 95.8108 292.564 95.8108 292.564C95.8108 292.564 84.5414 286.998 78.9545 275.715C74.6652 267.031 73.7227 254.969 83.7901 239.461C85.2653 250.497 91.3167 258.019 97.3134 265.171C98.0511 266.074 98.7887 266.949 99.5263 267.824C103.624 273.212 105.832 279.802 105.81 286.574Z" fill="#E3E3EC"/>
<g style="mix-blend-mode:overlay" opacity="0.53">
<path d="M83.7901 239.461C82.8197 244.215 82.5618 249.087 83.0251 253.916C83.4188 258.757 84.9342 263.44 87.4509 267.592C89.9644 271.695 93.434 275.114 96.5895 278.833C98.2168 280.678 99.5946 282.728 100.687 284.933C101.773 287.22 102.244 289.751 102.053 292.277C102.04 292.423 101.969 292.558 101.856 292.653C101.744 292.747 101.599 292.794 101.452 292.783C101.378 292.779 101.305 292.761 101.238 292.728C101.172 292.696 101.112 292.65 101.063 292.594C101.015 292.537 100.978 292.472 100.956 292.401C100.933 292.33 100.926 292.255 100.933 292.181C101.162 289.841 100.771 287.483 99.7995 285.343C98.7827 283.184 97.4776 281.174 95.9201 279.367C92.8739 275.647 89.418 272.132 86.9455 267.879C84.4805 263.643 83.0353 258.891 82.7246 253.998C82.3544 249.127 82.7136 244.227 83.7901 239.461Z" fill="black"/>
</g>
<g style="mix-blend-mode:overlay" opacity="0.25">
<path d="M126.628 267.031C124.92 269.014 123.322 271.134 121.806 273.226C120.289 275.319 118.841 277.616 117.544 279.804C114.833 284.232 112.98 289.131 112.08 294.246C112.056 294.394 111.976 294.526 111.856 294.616C111.736 294.705 111.586 294.744 111.438 294.725C111.366 294.715 111.296 294.69 111.234 294.653C111.171 294.616 111.117 294.566 111.073 294.508C111.03 294.449 110.999 294.383 110.982 294.312C110.965 294.241 110.962 294.167 110.973 294.095C112.082 288.897 114.163 283.955 117.107 279.531C118.473 277.302 120.03 275.155 121.614 273.076C123.199 270.997 124.838 268.96 126.628 267.031Z" fill="black"/>
</g>
<path d="M122.939 294.56L119.115 318.069C119.028 318.548 118.774 318.981 118.4 319.291C118.025 319.602 117.552 319.769 117.066 319.765H93.2974C92.8101 319.767 92.3372 319.599 91.9605 319.289C91.5839 318.98 91.3271 318.548 91.2348 318.069L88.134 298.923L87.41 294.506C87.3562 294.203 87.3691 293.893 87.4478 293.596C87.5266 293.299 87.6692 293.023 87.8657 292.787C88.0622 292.551 88.3079 292.361 88.5855 292.231C88.8631 292.1 89.1659 292.032 89.4726 292.03H120.89C121.203 292.027 121.513 292.094 121.796 292.228C122.079 292.361 122.328 292.556 122.526 292.8C122.723 293.043 122.862 293.328 122.934 293.633C123.005 293.937 123.007 294.255 122.939 294.56Z" fill="#E3E3EC"/>
<path d="M126.628 299.347H83.7901L84.9239 292.947C85.0406 292.303 85.3766 291.719 85.8747 291.295C86.3728 290.871 87.0022 290.633 87.6558 290.622H122.694C123.348 290.631 123.979 290.868 124.477 291.292C124.976 291.717 125.311 292.302 125.426 292.947L126.628 299.347Z" fill="#C6C6D5"/>
<g style="mix-blend-mode:overlay" opacity="0.25">
<path d="M110.646 281.596C110.32 284.604 110.421 287.642 110.946 290.622H105.332C105.615 289.272 105.761 287.898 105.769 286.519C105.791 279.748 103.583 273.158 99.4854 267.77C98.7477 266.895 98.0101 266.019 97.2725 265.117C97.453 260.849 98.4112 256.65 100.1 252.727C100.428 258.375 101.821 268.207 107.449 269.247C111.738 270.026 117.312 265.773 121.56 261.657C119.32 265.691 117.161 269.862 115.372 273.869C113.423 276.196 111.83 278.8 110.646 281.596Z" fill="black"/>
</g>
<g style="mix-blend-mode:overlay" opacity="0.25">
<path d="M107.517 319.765H93.2974C92.81 319.767 92.3371 319.599 91.9605 319.289C91.5838 318.98 91.3271 318.548 91.2347 318.069L88.1886 299.347H100.483C99.9637 303.106 100.051 306.925 100.742 310.657C101.872 314.39 104.269 317.611 107.517 319.765Z" fill="black"/>
</g>
<path d="M215.253 69.7931H154.33C151.32 69.7931 148.88 72.2361 148.88 75.2497V120.612C148.88 123.626 151.32 126.069 154.33 126.069H215.253C218.264 126.069 220.704 123.626 220.704 120.612V75.2497C220.704 72.2361 218.264 69.7931 215.253 69.7931Z" fill="#585863"/>
<path d="M165.599 89.7808V95.8391C165.599 96.0713 165.692 96.2939 165.856 96.458C166.019 96.6222 166.242 96.7144 166.474 96.7144H169.82C170.054 96.7144 170.277 96.6226 170.443 96.4589C170.61 96.2951 170.705 96.0725 170.708 95.8391V89.7808C170.708 89.5487 170.8 89.3261 170.964 89.1619C171.128 88.9978 171.351 88.9056 171.583 88.9056H171.897C172.13 88.9056 172.354 88.9973 172.52 89.1611C172.686 89.3248 172.781 89.5474 172.785 89.7808V106.192C172.781 106.425 172.686 106.648 172.52 106.811C172.354 106.975 172.13 107.067 171.897 107.067H171.583C171.351 107.067 171.128 106.975 170.964 106.811C170.8 106.646 170.708 106.424 170.708 106.192V99.4359C170.708 99.2001 170.615 98.974 170.448 98.8073C170.282 98.6406 170.056 98.5469 169.82 98.5469H166.474C166.241 98.5505 166.018 98.6457 165.855 98.8121C165.691 98.9784 165.599 99.2024 165.599 99.4359V106.192C165.599 106.424 165.507 106.646 165.343 106.811C165.179 106.975 164.957 107.067 164.725 107.067H164.397C164.166 107.067 163.943 106.975 163.779 106.811C163.615 106.646 163.523 106.424 163.523 106.192V89.7808C163.523 89.5487 163.615 89.3261 163.779 89.1619C163.943 88.9978 164.166 88.9056 164.397 88.9056H164.725C164.957 88.9056 165.179 88.9978 165.343 89.1619C165.507 89.3261 165.599 89.5487 165.599 89.7808Z" fill="white"/>
<path d="M177.279 90.7655H175.708C175.476 90.7655 175.254 90.6733 175.09 90.5091C174.926 90.345 174.834 90.1224 174.834 89.8902V89.7808C174.834 89.5487 174.926 89.3261 175.09 89.1619C175.254 88.9978 175.476 88.9056 175.708 88.9056H182.674C182.906 88.9056 183.129 88.9978 183.293 89.1619C183.457 89.3261 183.549 89.5487 183.549 89.7808V89.8902C183.549 90.1224 183.457 90.345 183.293 90.5091C183.129 90.6733 182.906 90.7655 182.674 90.7655H181.104C180.872 90.7655 180.649 90.8577 180.485 91.0218C180.321 91.186 180.229 91.4086 180.229 91.6407V106.246C180.229 106.478 180.137 106.701 179.973 106.865C179.809 107.029 179.587 107.122 179.355 107.122H179.027C178.795 107.122 178.573 107.029 178.409 106.865C178.245 106.701 178.153 106.478 178.153 106.246V91.627C178.149 91.3973 178.056 91.1782 177.892 91.017C177.729 90.8558 177.508 90.7654 177.279 90.7655Z" fill="white"/>
<path d="M196.485 99.2854C196.348 96.8785 196.211 94.1981 196.293 92.1467H196.184C195.774 94.1707 195.296 96.3315 194.722 98.4785L192.482 107.012H191.116L188.985 98.8068C188.398 96.4819 187.852 94.2391 187.51 92.133H187.428C187.428 94.2664 187.319 96.8101 187.21 99.4085L186.895 106.246C186.882 106.47 186.784 106.68 186.622 106.835C186.46 106.99 186.245 107.078 186.021 107.081H185.925C185.806 107.081 185.688 107.056 185.578 107.009C185.468 106.962 185.369 106.892 185.287 106.805C185.205 106.718 185.142 106.615 185.101 106.502C185.061 106.39 185.044 106.27 185.051 106.151L186.021 89.7398C186.035 89.5173 186.133 89.3085 186.296 89.156C186.458 89.0035 186.673 88.9188 186.895 88.9193H187.633C187.827 88.9192 188.015 88.9836 188.169 89.1024C188.322 89.2213 188.431 89.3877 188.48 89.5757L190.447 97.2477C191.075 99.6547 191.526 101.433 191.909 103.511H191.991C192.332 101.433 192.742 99.7094 193.357 97.2477L195.242 89.5894C195.287 89.3989 195.396 89.2293 195.549 89.1078C195.703 88.9863 195.893 88.9199 196.088 88.9193H196.894C197.117 88.9188 197.332 89.0035 197.494 89.156C197.657 89.3085 197.755 89.5173 197.769 89.7398L198.725 106.151C198.732 106.27 198.715 106.39 198.675 106.502C198.634 106.615 198.571 106.718 198.489 106.805C198.407 106.892 198.308 106.962 198.198 107.009C198.089 107.056 197.97 107.081 197.851 107.081H197.673C197.448 107.081 197.232 106.994 197.069 106.839C196.906 106.684 196.809 106.471 196.799 106.246L196.485 99.2854Z" fill="white"/>
<path d="M202.509 88.8919H202.836C203.068 88.8919 203.291 88.9841 203.455 89.1483C203.619 89.3124 203.711 89.535 203.711 89.7672V104.482C203.714 104.716 203.809 104.938 203.976 105.102C204.142 105.266 204.365 105.357 204.599 105.357H207.973C208.204 105.357 208.427 105.45 208.591 105.614C208.755 105.778 208.847 106.001 208.847 106.233C208.847 106.465 208.755 106.687 208.591 106.852C208.427 107.016 208.204 107.108 207.973 107.108H202.509C202.277 107.108 202.054 107.016 201.89 106.852C201.727 106.687 201.634 106.465 201.634 106.233V89.8219C201.627 89.7024 201.644 89.5827 201.685 89.4701C201.725 89.3575 201.788 89.2544 201.87 89.1673C201.952 89.0801 202.051 89.0107 202.161 88.9634C202.271 88.916 202.389 88.8917 202.509 88.8919Z" fill="white"/>
<path d="M243.038 74.6965C243.426 74.739 243.819 74.6928 244.187 74.5613C244.554 74.4298 244.888 74.2164 245.161 73.9373C245.435 73.6582 245.641 73.3206 245.766 72.9499C245.89 72.5792 245.929 72.1851 245.879 71.7973C245.86 70.6177 245.778 69.4399 245.633 68.269C245.484 67.0571 245.397 65.8384 245.374 64.6176C245.374 60.8704 247.655 59.2977 250.605 59.2977H251.097V61.4585H250.482C248.734 61.4585 248.037 62.703 248.037 64.5765C248.053 65.6291 248.135 66.6797 248.283 67.7219C248.365 68.8023 248.488 69.8006 248.488 70.799C248.488 74.0401 247.409 75.1478 245.633 75.6538V75.7359C247.409 76.2692 248.529 77.3906 248.488 80.6728C248.488 81.7122 248.365 82.7515 248.283 83.7909C248.137 84.8471 248.055 85.9112 248.037 86.9773C248.037 88.8509 248.652 90.1364 250.523 90.1364H251.097V92.2971H250.564C247.832 92.2971 245.374 90.9296 245.374 86.9773C245.397 85.7429 245.484 84.5105 245.633 83.2849C245.775 82.1 245.857 80.9087 245.879 79.7155C245.927 79.3285 245.888 78.9357 245.765 78.5656C245.643 78.1955 245.439 77.8574 245.17 77.5759C244.9 77.2943 244.572 77.0764 244.208 76.9379C243.844 76.7994 243.453 76.7438 243.065 76.7752L243.038 74.6965Z" fill="#585863"/>
<path d="M285.288 76.7752C284.899 76.7413 284.508 76.7951 284.142 76.9327C283.777 77.0703 283.447 77.2882 283.177 77.5703C282.907 77.8524 282.704 78.1916 282.582 78.5629C282.46 78.9342 282.423 79.3281 282.474 79.7155C282.496 80.9087 282.578 82.1 282.72 83.2849C282.864 84.5107 282.946 85.7431 282.966 86.9773C282.966 90.9296 280.521 92.2971 277.789 92.2971H277.297V90.1364H277.871C279.742 89.9312 280.357 88.8509 280.357 86.9773C280.357 85.8559 280.234 84.8302 280.152 83.7909C280.009 82.7572 279.927 81.7161 279.906 80.6728C279.906 77.3906 280.985 76.2692 282.761 75.7359V75.6538C280.985 75.1478 279.865 74.0401 279.906 70.799C279.93 69.7695 280.012 68.7422 280.152 67.7219C280.234 66.7236 280.357 65.6979 280.357 64.5765C280.357 62.703 279.646 61.6636 277.912 61.4585H277.297V59.2977H277.789C280.725 59.2977 283.007 60.8704 283.007 64.6176C282.987 65.8381 282.905 67.0569 282.761 68.269C282.616 69.4399 282.534 70.6177 282.515 71.7973C282.463 72.1831 282.5 72.5757 282.621 72.9453C282.743 73.315 282.947 73.6521 283.218 73.9313C283.489 74.2105 283.82 74.4245 284.186 74.557C284.551 74.6896 284.942 74.7373 285.329 74.6965L285.288 76.7752Z" fill="#585863"/>
<path d="M271.068 79.7839V71.811L264.156 67.8177L257.258 71.811V79.7839L264.156 83.7772L271.068 79.7839Z" fill="#F96B61"/>
<path d="M323.03 119.566C319.528 117.814 315.525 117.337 311.71 118.22C307.895 119.102 304.506 121.287 302.126 124.4C299.746 127.513 298.523 131.358 298.669 135.276C298.814 139.193 300.319 142.938 302.923 145.865L300.396 145.564C300.257 145.56 300.121 145.609 300.016 145.7C299.91 145.791 299.842 145.917 299.825 146.056C299.808 146.194 299.843 146.334 299.924 146.447C300.004 146.561 300.123 146.641 300.259 146.672L304.125 147.137C304.198 147.145 304.272 147.138 304.342 147.117C304.413 147.096 304.478 147.061 304.535 147.014C304.592 146.969 304.64 146.914 304.675 146.85C304.711 146.787 304.732 146.717 304.74 146.644L305.19 142.911C305.209 142.762 305.167 142.612 305.075 142.494C304.982 142.376 304.847 142.3 304.699 142.282C304.55 142.264 304.4 142.305 304.283 142.398C304.165 142.49 304.088 142.625 304.07 142.774L303.797 145.154C301.338 142.429 299.908 138.929 299.755 135.261C299.601 131.592 300.733 127.985 302.956 125.064C305.178 122.142 308.351 120.091 311.924 119.264C315.498 118.438 319.248 118.888 322.525 120.537C322.656 120.594 322.803 120.598 322.937 120.55C323.071 120.501 323.182 120.403 323.246 120.276C323.311 120.149 323.324 120.002 323.284 119.865C323.244 119.728 323.153 119.611 323.03 119.539V119.566Z" fill="#F96B61"/>
<path d="M308.51 150.542C312.012 152.287 316.011 152.758 319.822 151.873C323.633 150.988 327.017 148.802 329.393 145.692C331.77 142.581 332.991 138.739 332.847 134.826C332.703 130.912 331.203 127.17 328.604 124.244L331.144 124.544C331.217 124.554 331.291 124.549 331.362 124.529C331.433 124.509 331.499 124.475 331.556 124.429C331.614 124.383 331.661 124.326 331.696 124.261C331.731 124.196 331.752 124.125 331.759 124.052C331.769 123.979 331.763 123.905 331.743 123.834C331.724 123.763 331.69 123.697 331.644 123.64C331.598 123.582 331.541 123.535 331.476 123.5C331.412 123.465 331.34 123.443 331.267 123.437L327.415 122.972C327.342 122.964 327.268 122.97 327.198 122.991C327.127 123.013 327.062 123.048 327.005 123.095C326.948 123.139 326.9 123.195 326.865 123.258C326.83 123.322 326.808 123.392 326.8 123.464L326.35 127.197C326.346 127.337 326.394 127.472 326.485 127.578C326.576 127.683 326.703 127.751 326.841 127.768C326.979 127.786 327.119 127.75 327.232 127.67C327.346 127.59 327.426 127.47 327.456 127.334L327.743 124.955C330.202 127.679 331.632 131.179 331.785 134.848C331.939 138.516 330.807 142.124 328.584 145.045C326.362 147.966 323.189 150.017 319.616 150.844C316.042 151.67 312.292 151.22 309.015 149.571C308.95 149.536 308.879 149.515 308.805 149.508C308.731 149.501 308.657 149.51 308.587 149.533C308.517 149.556 308.452 149.593 308.396 149.642C308.341 149.691 308.296 149.75 308.264 149.817C308.206 149.947 308.198 150.093 308.244 150.228C308.29 150.363 308.385 150.475 308.51 150.542Z" fill="#F96B61"/>
<path d="M458.032 181.955H356.852C355.967 181.955 355.118 181.604 354.491 180.978C353.863 180.353 353.509 179.504 353.506 178.618C353.506 177.729 353.858 176.877 354.486 176.249C355.113 175.62 355.965 175.267 356.852 175.267H458.032C458.919 175.267 459.77 175.62 460.398 176.249C461.026 176.877 461.378 177.729 461.378 178.618C461.375 179.504 461.02 180.353 460.393 180.978C459.766 181.604 458.917 181.955 458.032 181.955Z" fill="#F96B61"/>
<path d="M421.901 196.492H356.852C355.967 196.492 355.118 196.141 354.491 195.516C353.863 194.89 353.509 194.042 353.506 193.155C353.506 192.267 353.858 191.414 354.486 190.786C355.113 190.158 355.965 189.805 356.852 189.805H421.901C422.789 189.805 423.64 190.158 424.267 190.786C424.895 191.414 425.248 192.267 425.248 193.155C425.244 194.042 424.89 194.89 424.263 195.516C423.635 196.141 422.786 196.492 421.901 196.492Z" fill="#F96B61"/>
<path d="M421.901 212.096H356.852C355.967 212.096 355.118 211.745 354.491 211.12C353.863 210.494 353.509 209.645 353.506 208.759C353.506 207.871 353.858 207.018 354.486 206.39C355.113 205.762 355.965 205.409 356.852 205.409H421.901C422.789 205.409 423.64 205.762 424.267 206.39C424.895 207.018 425.248 207.871 425.248 208.759C425.244 209.645 424.89 210.494 424.263 211.12C423.635 211.745 422.786 212.096 421.901 212.096Z" fill="#F96B61"/>
<path d="M99.2668 126.404H46.7033C45.8194 126.404 44.9716 126.053 44.3465 125.427C43.7215 124.801 43.3703 123.952 43.3703 123.067C43.3703 122.181 43.721 121.331 44.3457 120.703C44.9704 120.075 45.8181 119.72 46.7033 119.717H99.2668C100.152 119.72 101 120.075 101.624 120.703C102.249 121.331 102.6 122.181 102.6 123.067C102.6 123.952 102.249 124.801 101.624 125.427C100.999 126.053 100.151 126.404 99.2668 126.404Z" fill="#F96B61"/>
<path d="M79.4189 140.942H46.7033C45.8194 140.942 44.9716 140.59 44.3465 139.964C43.7215 139.338 43.3703 138.49 43.3703 137.605C43.3703 136.718 43.721 135.868 44.3457 135.24C44.9704 134.612 45.8181 134.258 46.7033 134.254H79.4189C80.3041 134.258 81.1519 134.612 81.7765 135.24C82.4012 135.868 82.7519 136.718 82.7519 137.605C82.7519 138.49 82.4008 139.338 81.7757 139.964C81.1507 140.59 80.3029 140.942 79.4189 140.942Z" fill="#F96B61"/>
<path d="M79.4189 156.545H46.7033C45.8194 156.545 44.9716 156.194 44.3465 155.568C43.7215 154.942 43.3703 154.094 43.3703 153.209C43.3703 152.322 43.721 151.472 44.3457 150.844C44.9704 150.216 45.8181 149.862 46.7033 149.858H79.4189C80.3041 149.862 81.1519 150.216 81.7765 150.844C82.4012 151.472 82.7519 152.322 82.7519 153.209C82.7519 154.094 82.4008 154.942 81.7757 155.568C81.1507 156.194 80.3029 156.545 79.4189 156.545Z" fill="#F96B61"/>
<path d="M412.448 368.765C409.411 377.512 405.636 385.985 401.165 394.092C387.027 419.953 370.594 436.418 369.98 460.528C366.904 444.5 366.566 428.066 368.982 411.925C371.277 397.374 376.454 381.839 387.068 368.765C416.601 332.415 412.23 299.347 412.23 299.347C412.23 299.347 427.023 326.466 412.448 368.765Z" fill="#585863"/>
<g style="mix-blend-mode:overlay" opacity="0.25">
<path d="M377.656 432.233C377.301 429.281 377.301 426.297 377.656 423.344C377.953 420.408 378.478 417.5 379.227 414.647C380.734 408.968 382.84 403.467 385.511 398.236C386.795 395.596 388.311 393.08 389.8 390.55L394.554 383.206C397.575 378.242 400.162 373.026 402.285 367.616C404.428 362.212 406.253 356.686 407.749 351.068C409.288 345.443 410.559 339.758 411.56 334.015C412.577 328.273 413.275 322.479 413.65 316.66C413.846 313.752 413.892 310.835 413.787 307.922C413.733 306.465 413.596 305.013 413.377 303.573C413.208 302.12 412.812 300.703 412.202 299.374C412.834 300.695 413.253 302.107 413.445 303.559C413.693 304.998 413.853 306.45 413.924 307.908C414.074 310.828 414.074 313.754 413.924 316.674C413.642 322.513 413.017 328.331 412.052 334.097C411.11 339.868 409.908 345.598 408.405 351.246C406.949 356.887 405.17 362.439 403.078 367.876C400.981 373.358 398.422 378.651 395.428 383.698L390.674 391.124C389.213 393.627 387.71 396.116 386.467 398.728C383.84 403.897 381.779 409.335 380.32 414.947C379.591 417.745 379.07 420.593 378.763 423.467C378.422 426.311 378.422 429.185 378.763 432.028C378.782 432.175 378.743 432.324 378.653 432.442C378.564 432.559 378.431 432.637 378.285 432.657C378.146 432.678 378.004 432.646 377.888 432.568C377.772 432.489 377.689 432.37 377.656 432.233Z" fill="black"/>
</g>
<g style="mix-blend-mode:overlay" opacity="0.25">
<path d="M401.165 394.092C387.027 419.953 370.594 436.418 369.98 460.528C366.904 444.5 366.566 428.066 368.982 411.925C378.148 408.178 391.043 402.065 401.165 394.092Z" fill="black"/>
</g>
<path d="M378.189 486.075C378.189 486.075 367.862 468.392 392.3 446.579C416.737 424.766 435.875 395.911 432.146 372.566C408.774 399.754 346.607 438.319 364.133 486.075H378.189Z" fill="#F96B61"/>
<g style="mix-blend-mode:overlay" opacity="0.25">
<path d="M432.146 372.566C429.728 377.686 426.77 382.532 423.322 387.022C419.908 391.526 416.193 395.793 412.202 399.795C408.184 403.776 403.967 407.55 399.567 411.104C395.281 414.766 391.377 418.853 387.915 423.303C380.922 432.16 375.624 442.235 372.288 453.02C370.624 458.384 369.668 463.942 369.447 469.554C369.137 475.159 370.07 480.764 372.179 485.965C372.232 486.1 372.231 486.25 372.176 486.384C372.121 486.518 372.016 486.626 371.883 486.684C371.751 486.743 371.601 486.747 371.465 486.697C371.329 486.647 371.218 486.547 371.154 486.416C369.014 481.08 368.082 475.336 368.422 469.595C368.728 463.871 369.779 458.212 371.55 452.761C375.009 441.92 380.431 431.809 387.546 422.934C391.063 418.491 395.022 414.417 399.362 410.776C403.785 407.268 408.025 403.534 412.066 399.59C416.09 395.631 419.837 391.399 423.281 386.926C426.736 382.468 429.708 377.654 432.146 372.566Z" fill="black"/>
</g>
<path d="M27.4018 358.002C27.4018 358.002 14.6435 346.364 7.86813 317.276C46.9219 350.426 56.4839 379.938 56.4839 379.938L27.4018 358.002Z" fill="#585863"/>
<g style="mix-blend-mode:overlay" opacity="0.25">
<path d="M7.86813 317.276C13.3321 325.053 18.6367 332.925 23.782 340.894C26.3774 344.878 28.9044 348.898 31.3632 352.956C33.8804 357.009 36.1609 361.206 38.1932 365.523C38.2237 365.591 38.2406 365.664 38.2431 365.737C38.2455 365.811 38.2334 365.885 38.2074 365.954C38.1814 366.023 38.142 366.087 38.0915 366.141C38.041 366.195 37.9804 366.238 37.9132 366.269C37.8459 366.299 37.7733 366.316 37.6995 366.319C37.6257 366.321 37.5521 366.309 37.4829 366.283C37.4138 366.257 37.3505 366.218 37.2966 366.167C37.2426 366.117 37.1992 366.056 37.1687 365.988C35.2313 361.677 33.056 357.477 30.6529 353.407C28.2761 349.304 25.8355 345.238 23.3312 341.208C18.3134 333.139 13.1591 325.162 7.86813 317.276Z" fill="black"/>
</g>
<path d="M55.6916 374.358C48.6704 368.026 38.2752 361.735 28.3717 354.98C15.2172 345.995 2.95055 336.121 0.683 324.114C-4.48046 367.63 46.0613 387.213 46.0613 387.213L46.1706 387.364L64.5296 414.168C64.5296 414.168 72.0289 389.114 55.6916 374.358Z" fill="#F96B61"/>
<g style="mix-blend-mode:overlay" opacity="0.25">
<path d="M0.682997 324.114C0.834268 328.964 2.02204 333.725 4.16629 338.076C6.30671 342.407 9.16059 346.346 12.6081 349.728C16.118 353.038 19.9532 355.984 24.0552 358.522C28.1531 361.161 32.2511 363.705 36.1989 366.44C44.1763 371.91 51.8122 378.187 57.1532 386.406C62.4632 394.68 65.2233 404.335 65.0896 414.168C65.0896 414.317 65.0306 414.459 64.9256 414.564C64.8206 414.669 64.6781 414.729 64.5296 414.729C64.381 414.729 64.2386 414.669 64.1336 414.564C64.0285 414.459 63.9695 414.317 63.9695 414.168C64.1933 404.511 61.581 395.001 56.4565 386.816C51.2794 378.693 43.7801 372.334 35.8847 366.864C31.9233 364.129 27.839 361.517 23.8229 358.836C19.7248 356.249 15.9027 353.247 12.4169 349.878C9.00496 346.437 6.19307 342.448 4.09798 338.076C1.97697 333.72 0.812535 328.959 0.682997 324.114Z" fill="black"/>
</g>
<path d="M415.549 505.48H75.9493C73.3771 505.48 70.9102 504.457 69.0914 502.636C67.2725 500.816 66.2507 498.346 66.2507 495.771C66.2507 494.496 66.5016 493.233 66.989 492.055C67.4764 490.877 68.1908 489.806 69.0914 488.905C69.992 488.003 71.0611 487.288 72.2378 486.8C73.4145 486.312 74.6757 486.061 75.9493 486.061H415.549C416.823 486.061 418.084 486.312 419.261 486.8C420.437 487.288 421.506 488.003 422.407 488.905C423.308 489.806 424.022 490.877 424.509 492.055C424.997 493.233 425.248 494.496 425.248 495.771C425.248 498.346 424.226 500.816 422.407 502.636C420.588 504.457 418.121 505.48 415.549 505.48Z" fill="#FEF0EF"/>
</g>
<defs>
<clipPath id="clip0_21_36">
<rect width="474" height="506" fill="white"/>
</clipPath>
</defs>
</svg>
